<?xml version="1.0" standalone="no"?><!DOCTYPE svg PUBLIC "-//W3C//DTD SVG 1.1//EN" "http://www.w3.org/Graphics/SVG/1.1/DTD/svg11.dtd"><svg t="1610071299163" class="icon" viewBox="0 0 1024 1024" version="1.1" xmlns="http://www.w3.org/2000/svg" p-id="4916" xmlns:xlink="http://www.w3.org/1999/xlink" width="200" height="200"><defs><style type="text/css"></style></defs><path d="M778.5 534.3H243.3c-4.7 0-8.4 3.8-8.4 8.4v63.1c0 4.7 3.8 8.4 8.4 8.4h290.1c4.7 0 8.4 3.8 8.4 8.4v99.2c0 7 8 10.9 13.6 6.7L785 553.3c8-6.1 3.7-19-6.5-19zM780.7 409.7H490.6c-4.7 0-8.4-3.8-8.4-8.4v-99.2c0-7-8-10.9-13.6-6.7L239 470.7c-8 6.1-3.7 19 6.4 19h535.2c4.7 0 8.4-3.8 8.4-8.4v-63.1c0.1-4.8-3.6-8.5-8.3-8.5z" p-id="4917"></path><path d="M512 64C265 64 64 265 64 512s201 448 448 448 448-201 448-448S759 64 512 64z m0 843.9c-218.3 0-395.9-177.6-395.9-395.9S293.7 116.1 512 116.1c218.3 0 395.9 177.6 395.9 395.9S730.3 907.9 512 907.9z" p-id="4918"></path></svg>