<?xml version="1.0" standalone="no"?><!DOCTYPE svg PUBLIC "-//W3C//DTD SVG 1.1//EN" "http://www.w3.org/Graphics/SVG/1.1/DTD/svg11.dtd"><svg t="1610089266938" class="icon" viewBox="0 0 1024 1024" version="1.1" xmlns="http://www.w3.org/2000/svg" p-id="1095" xmlns:xlink="http://www.w3.org/1999/xlink" width="200" height="200"><defs><style type="text/css"></style></defs><path d="M958.659853 321.788867c0.089028 0 0.089028 0 0.089028 0-0.346901-0.089028-0.781806-0.178055-1.216711-0.222057-0.346901-0.089028-0.523933-0.089028-0.870834-0.168846-1.127683-0.178055-2.336208-0.301875-3.898797-0.346901-4.076852-0.13303-7.984858-0.26606-11.706623-0.434905-21.433148-0.692778-37.820374-0.825808-37.820374-0.825808l4.076852-6.54609c-22.552645-1.261737-46.499034-7.762801-46.499034-7.762801l10.499122-4.76963c-29.231765-5.204535-52.565193-25.811876-52.565193-25.811876l7.549953-0.257873c-34.614355-31.879058-47.626717-35.733852-47.626717-35.733852l8.420787-1.349741c-21.433148-24.932856-53.781904-29.009707-53.781904-29.009707l10.578939-3.650133c-30.963199-25.580608-64.183811-20.989033-64.183811-20.989033l6.066159-6.724145c-34.783201-11.493775-70.692039 2.869351-70.692039 2.869351l8.239662-6.724145c-29.491685-13.83817-78.803787 16.041348-78.803787 16.041348s0 0.044002-0.086981 0.044002c-20.948101-20.810978-40.681538-46.747697-55.16746-67.52286 7.02602-11.626805 12.143575-22.116717 12.577456-27.499307 0.086981-0.089028 0-0.168846 0-0.168846 1.430582-7.337105-5.117554-17.436114-16.350386-23.902386-12.620435-7.371898-26.455535-7.327896-30.749328 0.044002-0.433882 0.692778-0.607844 1.429559-0.824785 2.12336-9.801227 13.314237-17.001209 55.425334-32.181957 74.123184-17.60803 21.645996-50.352805 46.019103-59.677171 54.990428-33.568537 32.180933-80.235392 86.442768-112.069425 162.253384-22.378683 53.436026-38.33919 108.72833-43.240827 167.413917-2.081405 24.674982-2.168386 50.042743-0.042979 76.112492-7.286963-0.089028-14.876826-0.479931-22.856567-1.261737-60.848856-6.369058-86.35067 23.813359-96.28288 43.327808-0.130983 0.178055-0.130983 0.390903-0.216941 0.523933-6.4192 10.366092-11.970636 23.245424-16.48137 39.383986-7.849782 28.271904-10.366092 58.241472-7.806803 87.38421l0 0c0 0.311085 0.044002 0.567935 0.044002 0.825808 0.433882 4.680603 0.997724 9.370415 1.691525 14.052041 0.044002 0.301875 0.086981 0.648776 0.172939 0.994654 0.693802 4.858658 1.604544 9.806343 2.602268 14.619976 0.086981 0.346901 0.172939 0.648776 0.25992 1.083681 0.997724 4.467755 2.168386 8.979512 3.382027 13.314237 0.086981 0.479931 0.173962 0.870834 0.303922 1.305739 1.388627 4.725628 2.863211 9.273201 4.467755 13.784958 0.085958 0.301875 0.216941 0.568958 0.302899 0.825808 1.517563 4.2897 3.166109 8.411577 4.988618 12.532431 0.172939 0.479931 0.38988 1.003863 0.606821 1.518586 1.951445 4.209882 3.946892 8.411577 6.15928 12.577456 0.12996 0.257873 0.25992 0.479931 0.433882 0.692778 1.995447 3.818979 4.206812 7.505951 6.462179 11.102872 0.346901 0.567935 0.607844 1.127683 1.040702 1.651616 2.298346 3.685949 4.770653 7.238868 7.372921 10.667967 0.346901 0.523933 0.73678 0.914836 1.127683 1.518586 1.907443 2.38021 3.858888 4.725628 5.854335 7.070023 1.648546 1.909489 3.296069 3.774977 4.988618 5.640464 0.085958 0.035816 0.12996 0.124843 0.216941 0.168846 21.988804 23.333428 50.483788 39.206954 85.006046 42.546002 109.554138 10.934027 186.710402-13.794168 220.929762-73.430406 0.173962-0.301875 0.390903-0.692778 0.563842-1.083681 1.995447-3.419889 3.946892-6.982018 5.855358-10.791787 0.780783-1.65264 1.517563-3.429099 2.298346-5.124717 0.824785-1.687432 1.604544-3.206018 2.428306-4.938476l0 0c0.086981-0.26606 0.173962-0.434905 0.173962-0.568958 0.258896-0.514723 0.476861-0.994654 0.693802-1.554402 0.563842-1.261737 1.127683-2.602268 1.647523-3.908006 0.780783-1.954515 1.604544-3.898797 2.385327-5.897314 0.476861-1.127683 0.86674-2.25639 1.257643-3.295046 0.38988-1.083681 0.823761-2.078335 1.214664-3.171226 0.73678-2.078335 1.430582-4.15667 2.125407-6.244214 0.38988-1.127683 0.823761-2.291183 1.170662-3.419889 0.25992-0.781806 0.520863-1.518586 0.73678-2.25639 0.433882-1.563612 0.910743-3.1262 1.388627-4.689812 0.51984-1.820462 1.12666-3.596921 1.604544-5.462408 0.216941-0.73678 0.390903-1.563612 0.563842-2.345418 0.044002-0.301875 0.172939-0.692778 0.25992-1.039679 0.476861-1.687432 0.86674-3.384074 1.301645-5.071506 0.346901-1.518586 0.693802-2.993171 1.083681-4.511757 0.217964-1.252527 0.520863-2.647293 0.824785-4.076852 0.25992-1.341554 0.693802-2.771113 0.911766-4.16588 0.302899-1.474584 0.476861-2.949168 0.779759-4.458545 0.044002-0.311085 0.130983-0.701988 0.173962-1.092891 0.216941-1.296529 0.520863-2.558265 0.693802-3.765767 0.303922-1.563612 0.476861-3.1262 0.693802-4.733814 0.25992-1.820462 0.476861-3.685949 0.694825-5.507434 0.172939-1.039679 0.302899-1.989307 0.433882-2.993171 0-0.168846 0-0.301875 0.044002-0.426719-0.044002 0-0.044002 0-0.044002 0 0.303922-2.478448 0.433882-4.947685 0.606821-7.29208 0.173962-1.865487 0.303922-3.685949 0.390903-5.462408 0.216941-3.730974 0.303922-7.460925 0.303922-11.146874 0.085958-1.77646 0-3.641947-0.044002-5.418406-0.044002-3.251044-0.216941-6.42227-0.433882-9.628288-0.086981-1.518586-0.130983-3.038196-0.25992-4.511757-0.390903-4.334725-1.040702-8.544607-1.692548-12.754488-0.25992-1.732457-0.606821-3.419889-0.953721-5.071506-0.607844-2.904143-1.257643-5.897314-2.038426-8.80248-0.433882-1.65264-0.780783-3.206018-1.257643-4.76963-1.127683-3.818979-2.385327-7.593955-3.77293-11.280928 0 0-0.044002 0-0.086981 0-5.854335-14.957667-14.268982-28.618804-26.021653-40.245609-7.113001-7.15905-14.442944-13.057387-21.815865-18.128893-11.146874-11.013845-29.535687-18.261922-57.161884-21.947871-3.340071-0.514723-6.67912-0.861624-10.019191-1.127683-1.214664-0.168846-2.341325-0.257873-3.64297-0.390903-0.216941 0-0.520863 0-0.824785 0-4.640694-0.257873-9.195429-0.346901-13.70514-0.257873-2.255367 0.044002-4.379751 0.13303-6.54916 0.257873-3.946892 0.222057-7.936763 0.434905-11.883655 0.825808l0 0c-9.671267 0.994654-18.995633 2.38942-28.191062 3.987824-4.770653 0.701988-9.714246 1.394766-14.702863 2.087545-8.370645-81.060177-1.040702-157.261697 27.931143-226.40138 7.4159-17.60496 15.613606-33.868365 24.24417-48.959062 26.152637-45.104267 56.381102-79.069847 79.757508-101.489462 2.082428-1.954515 4.076852-3.864004 6.15928-5.595438-1.474584 1.083681-2.905166 2.300392-4.336772 3.428076 9.715269-9.148357 19.560498-16.565281 29.014824-23.636327 13.662161-10.277064 24.461111-16.787338 39.900755-33.006741 1.257643 8.846482 2.602268 18.563798 4.076852 29.142737l0.044002 0c8.066723 55.949266 20.340257 132.799562 33.525558 186.448436 17.34811 70.827115 75.55172 188.579983 104.002702 243.872287-1.908466-0.079818-3.729951-0.079818-5.638417-0.124843-28.191062-3.215228-67.483974 7.540743-80.365352 35.297924l1.170662-0.301875c-1.474584 2.042519-2.863211 4.16588-4.293793 6.333242 0-0.044002-0.044002-0.089028-0.044002-0.089028-0.303922 0.479931-0.563842 0.958838-0.823761 1.394766-1.300622 2.078335-2.601244 4.245697-3.685949 6.369058-0.824785 1.438769-1.561565 2.735297-2.342348 4.209882-1.083681 2.12336-2.168386 4.2897-3.166109 6.54609-0.693802 1.518586-1.344624 3.038196-1.995447 4.600785-0.911766 2.25639-1.821485 4.556783-2.64627 6.892991-0.563842 1.518586-1.127683 3.215228-1.647523 4.725628-0.73678 2.433422-1.517563 4.814656-2.169409 7.203052-0.433882 1.687432-0.86674 3.384074-1.300622 5.116531-0.563842 2.478448-1.171686 4.90266-1.604544 7.371898-0.346901 1.740644-0.650823 3.517103-0.953721 5.293563-0.433882 2.51324-0.780783 5.027503-1.084705 7.585769-0.216941 1.740644-0.390903 3.606131-0.563842 5.338588-0.303922 2.647293-0.520863 5.204535-0.649799 7.896854-0.086981 1.77646-0.130983 3.552919-0.216941 5.329379-0.044002 2.691295-0.130983 5.382591-0.130983 8.153704 0.044002 1.651616 0.130983 3.428076 0.172939 5.160533 0.130983 2.869351 0.173962 5.640464 0.390903 8.455579 0.086981 1.607614 0.346901 3.260254 0.520863 4.858658 0.303922 3.038196 0.520863 5.986341 0.910743 8.891508 0.216941 1.394766 0.433882 2.735297 0.650823 4.076852 0.172939 1.047866 0.346901 2.131547 0.520863 3.171226 0 0-0.044002 0-0.086981 0 0.086981 0.514723 0.216941 1.039679 0.346901 1.518586 0.25992 1.732457 0.51984 3.384074 0.86674 5.027503 0.044002 0.390903 0.172939 0.781806 0.303922 1.172709 1.995447 9.717316 4.683672 19.389606 7.979742 28.92989 0.476861 1.296529 1.040702 2.602268 1.517563 3.943822 0.476861 1.261737 0.953721 2.51324 1.431605 3.818979 0.25992 0.73678 0.520863 1.474584 0.823761 2.211365 0.954745 2.425236 2.125407 4.814656 3.123131 7.194866 0.649799 1.305739 1.301645 2.735297 1.865487 4.120854 0.25992 0.648776 0.562818 1.305739 0.86674 1.865487 1.388627 2.904143 2.90619 5.684466 4.380774 8.500605 0.693802 1.261737 1.257643 2.433422 1.907443 3.685949 0 0 0 0 0.086981 0 0.476861 0.781806 0.910743 1.651616 1.344624 2.51324 7.67582 13.101389 18.47477 25.331945 31.487132 36.08894 56.208163 46.791699 155.783019 66.484204 227.179093 11.31572 64.787562-50.2648 83.786265-103.389742 83.093487-150.190651-0.178055 3.1262-0.523933 6.288217-1.039679 9.459442 0-0.479931 0-0.870834 0-1.305739 0.168846-2.51324 0.168846-5.027503 0.168846-7.629771 0-1.039679 0-2.167363 0-3.215228-0.168846-3.251044-0.257873-6.41306-0.514723-9.53926l-0.089028 0.044002c-0.950651-12.142551-3.206018-23.769356-6.155187-34.694173-4.343935-15.96153-9.975189-31.18628-17.178241-45.193295 0.950651 1.127683 1.820462 2.034333 2.691295 3.340071 0 0-20.296255-55.425334-78.412884-75.072813-70.783113-23.946388-101.83534 5.853311-112.853277 12.008498-0.433882 0.311085-0.953721 0.61296-1.388627 0.870834-1.561565 0.73678-2.949168 1.385557-4.510734 2.078335-27.584242-53.950749-86.09075-171.703617-111.939465-245.080811-25.415856-72.51557-37.776372-199.158922-41.332361-240.755296 0.997724-1.429559 1.995447-2.860141 2.862187-4.2897 15.049764 21.770839 34.610262 47.75156 53.866838 66.697051-13.532201 18.305925-13.879102 48.408523-13.70514 49.962925l0.086981 4.991688c0 0 6.245238-2.993171 7.502881-3.641947-1.084705 5.027503-1.517563 10.232039-1.257643 15.437597 1.084705 26.238594 15.439644 53.169967 16.220427 54.643528l1.778506 3.260254c0 0 5.724375-4.121877 8.369621-6.120394 8.240685 33.743522 42.070164 59.724243 43.63173 60.85295l3.296069 2.558265c0 0 2.428306-6.466272 3.555989-9.024537 24.721031 26.460652 55.251372 35.263132 56.55711 35.609009l2.602268 0.73678c0 0 2.51324-5.338588 3.987824-8.064676 18.821671 18.039865 60.541865 16.565281 62.451354 16.521279l4.076852-0.168846c0 0-1.563612-5.426593-1.989307-6.5553 31.488155 10.019191 63.402005 4.209882 64.796772 3.953032l2.425236-0.479931c0 0 0.434905-5.160533 0.692778-7.718799 27.242458 3.118014 71.999824-17.827017 73.901127-18.741853l4.423753-2.12336c0 0-4.067642-3.685949-4.245697-3.774977 19.514449-3.596921 48.923246-13.873985 50.39783-14.353916l4.592598-1.598404c0 0-5.373381-5.817496-7.452739-7.940856 0.772596-0.346901 1.732457-0.870834 1.732457-0.870834 24.551162-14.007015 35.218106-21.246907 35.999912-27.882024C963.083605 324.43616 962.132954 322.783521 958.659853 321.788867zM178.248683 907.594827c-3.296069-2.647293-7.372921-5.595438-11.579733-9.761318-4.16281-3.987824-9.324366-8.198729-14.139022-13.57211-4.900613-5.293563-10.366092-10.969842-15.352663-17.648962-5.247514-6.466272-10.279111-13.794168-15.092743-21.512966-2.298346-4.076852-4.597715-8.153704-6.940063-12.230556-2.081405-4.343935-4.119831-8.722662-6.028297-13.270235-3.469008-9.157567-6.678096-18.741853-8.500605-28.716019-1.865487-10.019191-2.168386-20.296255-1.778506-30.404474 0.824785-10.099009 2.992147-19.86135 6.201236-28.92989 6.4192-18.08489 17.175171-32.606629 27.714202-42.892903 10.582009-10.366092 20.904099-16.912182 28.364001-20.900006 7.459902-3.987824 12.056594-5.418406 12.056594-5.418406s-3.729951 2.984984-9.671267 8.713452c-5.898337 5.720282-13.879102 14.264888-21.771863 25.287943-3.946892 5.551436-7.589862 11.884678-11.146874 18.599613-3.340071 6.813173-5.941316 14.3181-8.239662 22.036899-2.255367 7.807826-2.950192 16.174378-3.51301 24.585955-0.173962 8.375761 0.25992 17.001209 2.124384 25.589818 1.388627 8.633634 3.946892 17.001209 6.809079 25.331945 1.692548 3.987824 3.340071 8.064676 4.770653 12.097526 1.865487 3.943822 3.686972 7.851828 5.465478 11.67183 4.076852 7.452739 7.67582 14.913665 11.969613 21.548782 3.946892 6.901177 8.024767 13.145391 11.927657 18.999726 3.685949 5.897314 7.589862 11.013845 10.712993 15.8285 3.209088 4.76963 6.158257 8.766664 8.629541 12.142551 4.770653 6.724145 7.416923 10.755971 7.416923 10.755971S184.840822 912.75536 178.248683 907.594827zM591.570243 912.75536c-3.209088-2.602268-7.371898-5.640464-11.536754-9.717316-4.16281-3.987824-9.368368-8.242731-14.052041-13.70514-5.030573-5.204535-10.453073-10.844999-15.396665-17.559934-5.378497-6.42227-10.32209-13.750165-15.092743-21.468964-2.298346-4.121877-4.640694-8.198729-6.940063-12.319583-2.125407-4.334725-4.206812-8.677637-6.072299-13.181207-3.426029-9.201569-6.592139-18.785855-8.500605-28.716019-1.865487-10.063193-2.211365-20.340257-1.778506-30.448476 0.823761-10.099009 2.949168-19.86135 6.158257-28.92068 6.463202-18.093077 17.21815-32.571836 27.757181-42.857087 10.582009-10.366092 20.99108-16.956184 28.365025-20.900006 7.372921-4.03285 12.056594-5.462408 12.056594-5.462408s-3.729951 2.949168-9.714246 8.713452c-5.898337 5.729491-13.792121 14.264888-21.728884 25.287943-3.903913 5.551436-7.633864 11.884678-11.102872 18.599613-3.469008 6.813173-6.028297 14.3181-8.327666 22.036899-2.211365 7.851828-2.949168 16.219403-3.469008 24.585955-0.173962 8.420787 0.25992 17.045211 2.124384 25.63382 1.430582 8.544607 3.903913 17.001209 6.723122 25.243941 1.777483 4.03285 3.382027 8.153704 4.900613 12.186554 1.865487 3.864004 3.643993 7.762801 5.421476 11.67183 4.075829 7.407714 7.762801 14.868639 11.926634 21.548782 3.990894 6.857175 8.066723 13.101389 11.883655 18.954701 3.643993 5.986341 7.720845 11.013845 10.755971 15.8285 3.296069 4.76963 6.245238 8.81169 8.587586 12.106736 4.856611 6.803963 7.546883 10.791787 7.546883 10.791787S598.249363 917.960918 591.570243 912.75536z" p-id="1096"></path></svg>