<?xml version="1.0" standalone="no"?><!DOCTYPE svg PUBLIC "-//W3C//DTD SVG 1.1//EN" "http://www.w3.org/Graphics/SVG/1.1/DTD/svg11.dtd"><svg t="1610251646839" class="icon" viewBox="0 0 1024 1024" version="1.1" xmlns="http://www.w3.org/2000/svg" p-id="5275" xmlns:xlink="http://www.w3.org/1999/xlink" width="200" height="200"><defs><style type="text/css"></style></defs><path d="M652.06 325.58L506.25 471.4 360.43 325.58c-6.63-6.63-17.38-6.63-24.01 0-6.63 6.63-6.63 17.38 0 24.01l128.84 128.84h-86.91c-9.38 0-16.98 7.6-16.98 16.98s7.6 16.98 16.98 16.98h111.2v71.3H387.69c-9.38 0-16.98 7.6-16.98 16.98s7.6 16.98 16.98 16.98h101.86V722.9c0 9.38 7.6 16.98 16.98 16.98 9.37 0 16.98-7.6 16.98-16.98V617.64h101.86c9.38 0 16.98-7.6 16.98-16.98s-7.6-16.98-16.98-16.98H523.51v-71.3h111.2c9.38 0 16.98-7.6 16.98-16.98s-7.6-16.98-16.98-16.98h-87.47l128.84-128.84c6.63-6.63 6.63-17.38 0-24.01-6.64-6.62-17.39-6.62-24.02 0.01zM506.25 148.23c-197.05 0-357.37 160.31-357.37 357.37s160.31 357.37 357.37 357.37S863.62 702.66 863.62 505.6 703.3 148.23 506.25 148.23z m0 680.78c-178.33 0-323.41-145.08-323.41-323.41s145.08-323.41 323.41-323.41S829.66 327.27 829.66 505.6 684.58 829.01 506.25 829.01z m0 0" p-id="5276"></path></svg>