<?xml version="1.0" standalone="no"?><!DOCTYPE svg PUBLIC "-//W3C//DTD SVG 1.1//EN" "http://www.w3.org/Graphics/SVG/1.1/DTD/svg11.dtd"><svg t="1610090521614" class="icon" viewBox="0 0 1024 1024" version="1.1" xmlns="http://www.w3.org/2000/svg" p-id="5494" xmlns:xlink="http://www.w3.org/1999/xlink" width="200" height="200"><defs><style type="text/css"></style></defs><path d="M910.4 218H113.6C80.7 218 54 244.8 54 277.6v468.8c0 32.9 26.7 59.6 59.6 59.6h796.8c32.9 0 59.6-26.7 59.6-59.6V277.6c0-32.8-26.7-59.6-59.6-59.6zM950 746.4c0 21.8-17.8 39.6-39.6 39.6H113.6C91.8 786 74 768.2 74 746.4V277.6c0-21.8 17.8-39.6 39.6-39.6h796.8c21.8 0 39.6 17.8 39.6 39.6v468.8z" fill="#2D2E2C" p-id="5495"></path><path d="M652.5 278.2c-62.5 0-121.2 24.3-165.4 68.5s-68.5 102.9-68.5 165.4 24.3 121.2 68.5 165.4S590 746 652.5 746s121.2-24.3 165.4-68.5 68.5-102.9 68.5-165.4-24.4-121.3-68.6-165.5c-44.2-44.1-102.9-68.4-165.3-68.4z m0 447.6c-117.9 0-213.8-95.9-213.8-213.8 0-57.1 22.2-110.8 62.6-151.2 40.4-40.4 94.1-62.6 151.2-62.6 117.9 0 213.8 95.9 213.8 213.8s-95.9 213.8-213.8 213.8z" fill="#2D2E2C" p-id="5496"></path><path d="M652.5 350.9c-88.8 0-161.1 72.3-161.1 161.1s72.3 161.1 161.1 161.1S813.6 600.8 813.6 512c-0.1-88.8-72.3-161.1-161.1-161.1z m0 302.2c-77.8 0-141.1-63.3-141.1-141.1s63.3-141.1 141.1-141.1 141 63.3 141 141.1-63.3 141.1-141 141.1zM362.6 279H162c-5.5 0-10 4.5-10 10v75.2c0 5.5 4.5 10 10 10h200.6c5.5 0 10-4.5 10-10V289c0-5.5-4.5-10-10-10zM172 299h80.3v55.2H172V299z m180.6 55.2h-80.3V299h80.3v55.2z" fill="#2D2E2C" p-id="5497"></path></svg>