<?xml version="1.0" standalone="no"?><!DOCTYPE svg PUBLIC "-//W3C//DTD SVG 1.1//EN" "http://www.w3.org/Graphics/SVG/1.1/DTD/svg11.dtd"><svg t="1610071192522" class="icon" viewBox="0 0 1024 1024" version="1.1" xmlns="http://www.w3.org/2000/svg" p-id="3584" xmlns:xlink="http://www.w3.org/1999/xlink" width="200" height="200"><defs><style type="text/css"></style></defs><path d="M853.333333 341.333333V170.666667a28.444444 28.444444 0 0 0-28.444444-28.444445H199.111111a28.444444 28.444444 0 0 0-28.444444 28.444445v170.666666h682.666666z m0 56.888889H170.666667v398.222222a28.444444 28.444444 0 0 0 28.444444 28.444445h625.777778a28.444444 28.444444 0 0 0 28.444444-28.444445V398.222222z m-97.223111 483.555556H267.776l-77.084444 77.084444a28.444444 28.444444 0 1 1-40.248889-40.220444l37.603555-37.575111A85.333333 85.333333 0 0 1 113.777778 796.444444V170.666667a85.333333 85.333333 0 0 1 85.333333-85.333334h625.777778a85.333333 85.333333 0 0 1 85.333333 85.333334v625.777777a85.333333 85.333333 0 0 1-74.353778 84.622223l37.575112 37.575111a28.444444 28.444444 0 0 1-40.220445 40.248889L756.138667 881.777778zM284.444444 654.222222a56.888889 56.888889 0 1 1 0-113.777778 56.888889 56.888889 0 0 1 0 113.777778z m455.111112 0a56.888889 56.888889 0 1 1 0-113.777778 56.888889 56.888889 0 0 1 0 113.777778z" p-id="3585"></path></svg>