<?xml version="1.0" standalone="no"?><!DOCTYPE svg PUBLIC "-//W3C//DTD SVG 1.1//EN" "http://www.w3.org/Graphics/SVG/1.1/DTD/svg11.dtd"><svg t="1610089902186" class="icon" viewBox="0 0 1024 1024" version="1.1" xmlns="http://www.w3.org/2000/svg" p-id="3889" xmlns:xlink="http://www.w3.org/1999/xlink" width="200" height="200"><defs><style type="text/css"></style></defs><path d="M507.2 970.4c153.6 0 294.4-84 367.2-220l0.8-1.6h2.4c5.6 0.8 12 0.8 18.4 0.8 60 0 108-44 108-97.6 0-44.8-31.2-82.4-78.4-94.4l-2.4-0.8v-2.4c-0.8-49.6-8-93.6-22.4-134.4l-1.6-4h4.8c8.8-0.8 16.8-2.4 25.6-3.2l29.6-4.8-8.8-27.2C893.6 184.8 711.2 48.8 507.2 48.8c-202.4 0-383.2 135.2-440 329.6l-7.2 20.8 25.6 13.6 31.2 3.2-1.6 4c-15.2 44-22.4 89.6-22.4 136v2.4l-1.6 1.6c-42.4 14.4-70.4 51.2-70.4 92 0 55.2 47.2 97.6 108 97.6 3.2 0 6.4 0 9.6-0.8h2.4l0.8 1.6c72 136 212 220 365.6 220z m390.4-270.4c11.2-29.6 18.4-60 22.4-92l0.8-4 4 1.6c20.8 8.8 33.6 27.2 33.6 46.4 0 28-24 50.4-57.6 52h-4.8l1.6-4z m-783.2 3.2c-29.6-4.8-48.8-25.6-48.8-51.2 0-17.6 9.6-33.6 26.4-43.2l4-2.4 0.8 4.8c4 30.4 11.2 60 21.6 88l1.6 4.8-5.6-0.8z m54.4-280l0.8-2.4 108 10.4 48.8-80.8 43.2 88.8h13.6c0.8 0 50.4 2.4 127.2 2.4 79.2 0 201.6-3.2 335.2-17.6h2.4l0.8 2.4c16.8 42.4 24.8 87.2 24.8 132.8 0 200.8-163.2 363.2-363.2 363.2S146.4 759.2 146.4 558.4c0-46.4 7.2-90.4 22.4-135.2z" p-id="3890"></path><path d="M344 551.2c-22.4 0-40.8 18.4-40.8 40.8s18.4 40.8 40.8 40.8 40.8-18.4 40.8-40.8-18.4-40.8-40.8-40.8zM672.8 551.2c-22.4 0-40.8 18.4-40.8 40.8s18.4 40.8 40.8 40.8 40.8-18.4 40.8-40.8-17.6-40.8-40.8-40.8z" p-id="3891"></path></svg>