<?xml version="1.0" standalone="no"?><!DOCTYPE svg PUBLIC "-//W3C//DTD SVG 1.1//EN" "http://www.w3.org/Graphics/SVG/1.1/DTD/svg11.dtd"><svg t="1610089598225" class="icon" viewBox="0 0 1024 1024" version="1.1" xmlns="http://www.w3.org/2000/svg" p-id="1095" xmlns:xlink="http://www.w3.org/1999/xlink" width="200" height="200"><defs><style type="text/css"></style></defs><path d="M275.29728 926.0544c-33.57184 0-60.88192-27.31008-60.88192-60.88704V576.768L61.68064 487.88992c-14.35648-8.72448-23.98208-22.14912-26.43456-36.85376-2.58048-15.87712 1.82784-31.61088 12.41088-44.29824l200.33536-244.47488c0.16896-0.18432 0.3584-0.4096 0.5888-0.67584 10.20416-12.0064 48.67584-51.18976 115.28192-51.18976 12.76928 0 26.05568 1.44384 39.5008 4.29568 5.7344 1.2032 10.37824 6.10304 11.29472 11.904 0.04096 0.27648 3.70688 24.6016 19.8144 48.7936 14.16192 21.26848 41.0624 46.62272 88.8064 46.62272 34.62144 0 64.10752-15.616 85.27872-45.16864 14.04928-19.61472 20.7616-39.94112 23.51104-50.31424l0.16384-0.6144c1.57696-6.30272 6.79424-10.752 12.98432-11.03872l1.03424-0.04096c3.02592-0.11776 8.65792-0.34304 16.256-0.34304 40.85248 0 114.24256 6.35392 146.69312 48.91136l184.99584 242.52928c9.7792 12.75904 13.69088 28.89728 10.73152 44.27776-3.46624 15.46752-13.18912 28.45696-27.39712 36.62848l-151.82848 86.912v291.42016c0 33.57696-27.3152 60.88704-60.88704 60.88704H275.29728z m-46.6176-496.2304a14.27968 14.27968 0 0 1 14.2592 14.26944v421.07392a32.39424 32.39424 0 0 0 32.35328 32.35328h490.01472c17.23904 0 32.3584-15.11936 32.3584-32.35328V444.09344a14.2848 14.2848 0 0 1 14.2592-14.26944 14.2848 14.2848 0 0 1 14.26432 14.26944v96.93184l137.3696-78.57152a25.69728 25.69728 0 0 0 13.42464-17.37728l0.03584-0.16384c1.50016-7.49568-0.46592-15.0272-5.68832-21.74464l-185.4464-242.46784c-10.5216-14.0288-29.91616-24.40192-57.6512-30.84288-26.9312-6.25664-54.14912-6.93248-64.59904-6.93248h-6.41024l-2.1248 6.04672c-5.27872 15.01696-17.92 43.73504-43.264 67.36896-24.69376 23.02976-54.49728 34.70336-88.56064 34.70336-36.90496 0-68.11136-11.92448-92.76416-35.43552-25.18016-24.01792-36.10624-52.96128-40.37632-68.08064l-1.63328-5.7856-5.96992-0.73216a151.87968 151.87968 0 0 0-18.32448-1.13664c-56.51968 0-87.12192 33.55648-92.68224 40.28416L69.49888 424.86272c-5.62176 6.47168-7.936 14.1824-6.37952 21.19168 1.57184 7.0912 5.69344 12.55424 12.60032 16.70144l138.68544 80.90112V444.09344a14.29504 14.29504 0 0 1 14.27456-14.26944" p-id="1096"></path><path d="M314.97728 833.3056c-7.86944 0-14.26944-6.39488-14.26944-14.2592s6.4-14.26432 14.26944-14.26432h410.1632c7.86432 0 14.2592 6.4 14.2592 14.26432s-6.39488 14.2592-14.2592 14.2592h-410.1632z" p-id="1097"></path></svg>