<?xml version="1.0" standalone="no"?><!DOCTYPE svg PUBLIC "-//W3C//DTD SVG 1.1//EN" "http://www.w3.org/Graphics/SVG/1.1/DTD/svg11.dtd"><svg t="1609920890209" class="icon" viewBox="0 0 1116 1024" version="1.1" xmlns="http://www.w3.org/2000/svg" p-id="9443" xmlns:xlink="http://www.w3.org/1999/xlink" width="217.96875" height="200"><defs><style type="text/css"></style></defs><path d="M83.991949 920.092465h225.786373V536.195052H83.991949v383.897413z m323.801711 0h225.786373V405.313166H407.79366v514.779299z m322.762031-689.273472v689.273472h225.816049V230.818993H730.555691z m-97.599875-95.340415l-92.812849-29.784351c-13.112646-3.191692-25.175379 3.409656-29.338189 15.749706-3.964288 12.340049 3.329838 25.76992 15.392572 28.942169l37.248346 11.487636L81.741699 365.309056c-11.920494 5.237281-17.551748 18.975167-12.736069 31.072693 4.742001 11.946077 18.271132 17.786085 30.217209 13.043061l0.171915-0.068562 491.735468-205.992561-15.194051 42.769083c-4.370541 12.132318 1.873674 25.76992 13.945617 30.012547 11.816117 4.136204 24.747637-2.089591 28.883841-13.905707 0.085958-0.246617 0.167822-0.494257 0.245593-0.743944l30.596856-92.574419c4.619204-13.83203-2.830465-28.792767-16.652262-33.442669z" fill="red" p-id="9444"></path></svg>