<?xml version="1.0" standalone="no"?><!DOCTYPE svg PUBLIC "-//W3C//DTD SVG 1.1//EN" "http://www.w3.org/Graphics/SVG/1.1/DTD/svg11.dtd"><svg t="1610090736558" class="icon" viewBox="0 0 1024 1024" version="1.1" xmlns="http://www.w3.org/2000/svg" p-id="14079" xmlns:xlink="http://www.w3.org/1999/xlink" width="200" height="200"><defs><style type="text/css"></style></defs><path d="M909.2383156906668 485.3694985860741H114.7616843093333c-24.411293468444445 0-44.384169832296294-19.97287636385185-44.38416861866666-44.384169832296294v-190.8519282157037c0-24.411293468444445 19.97287636385185-44.384169832296294 44.38416861866666-44.38416861866666H911.4575236361482c24.411293468444445 0 44.384169832296294 19.97287636385185 44.384169832296294 44.38416861866666v190.8519282157037c-2.2192079454814815 24.411293468444445-22.19208430933333 44.384169832296294-46.60337777777777 44.384169832296294z m0-44.384169832296294v22.19208552296296-22.19208552296296z m-794.4766313813333-190.8519282157037v190.8519282157037H911.4575236361482v-190.8519282157037H114.7616843093333z" fill="" p-id="14080"></path><path d="M849.319686599111 982.4721948823706H212.40685696948145c-13.315251313777777 0-22.19208430933333-8.876834209185184-22.19208430933333-22.19208430933333s8.876834209185184-22.19208430933333 22.19208430933333-22.19208552296296h639.1320387887406V485.3694985860741H174.6803134008889v397.23831569066664c0 13.315251313777777-8.876834209185184 22.19208430933333-22.19208430933333 22.19208430933333s-22.19208430933333-8.876834209185184-22.19208552296296-22.19208430933333V487.5887065315556c0-24.411293468444445 19.97287636385185-44.384169832296294 44.384169832296294-44.38416861866666h676.8585823573334c24.411293468444445 0 44.384169832296294 19.97287636385185 44.38416861866666 44.38416861866666v452.71852767762954c-2.2192079454814815 24.411293468444445-22.19208430933333 42.164960673185185-46.60337777777777 42.164960673185185z" fill="" p-id="14081"></path><path d="M512 973.595360673185c-13.315251313777777 0-22.19208430933333-8.876834209185184-22.19208430933333-22.19208430933333V236.81815043792596c0-13.315251313777777 8.876834209185184-22.19208430933333 22.19208430933333-22.19208430933333s22.19208430933333 8.876834209185184 22.19208430933333 22.19208430933333v714.5851259259258c0 11.096042154666666-8.876834209185184 22.19208430933333-22.19208430933333 22.19208430933333z" fill="" p-id="14082"></path><path d="M520.8768342091852 259.01023474725935L341.12094814814816 90.35039205451841c-8.876834209185184-8.876834209185184-8.876834209185184-22.19208430933333 0-31.06891851851852 8.876834209185184-8.876834209185184 22.19208430933333-8.876834209185184 31.06891851851852 0l148.68696754251854 139.81013333333334 133.15250706962962-139.81013333333334c8.876834209185184-8.876834209185184 22.19208430933333-8.876834209185184 31.06891851851852 0 8.876834209185184 8.876834209185184 8.876834209185184 22.19208430933333 0 31.06891851851852l-164.22142558814815 168.65984269274074z" fill="" p-id="14083"></path></svg>