<?xml version="1.0" standalone="no"?><!DOCTYPE svg PUBLIC "-//W3C//DTD SVG 1.1//EN" "http://www.w3.org/Graphics/SVG/1.1/DTD/svg11.dtd"><svg t="1610071099125" class="icon" viewBox="0 0 1024 1024" version="1.1" xmlns="http://www.w3.org/2000/svg" p-id="2608" xmlns:xlink="http://www.w3.org/1999/xlink" width="200" height="200"><defs><style type="text/css"></style></defs><path d="M51.2 525.963636c-6.981818 0-13.963636-2.327273-18.618182-9.309091-9.309091-9.309091-6.981818-25.6 2.327273-32.581818L512 88.436364c9.309091-6.981818 20.945455-6.981818 30.254545 0l453.818182 384c9.309091 9.309091 11.636364 23.272727 2.327273 32.581818s-23.272727 11.636364-32.581818 2.327273l-439.854546-372.363637L65.163636 521.309091c-4.654545 4.654545-9.309091 4.654545-13.963636 4.654545z" p-id="2609"></path><path d="M851.78181799 926.64242433H214.109091c-13.963636 0-23.272727-9.309091-23.272727-23.272727v-512c0-13.963636 9.309091-23.272727 23.272727-23.272728s23.272727 9.309091 23.27272699 23.272728v488.727272h591.12727301v-488.727272c0-13.963636 9.309091-23.272727 23.27272699-23.272728s23.272727 9.309091 23.27272701 23.272728v512c0 13.963636-11.636364 23.272727-23.27272701 23.272727z" p-id="2610"></path><path d="M640 907.636364c-13.963636 0-23.272727-9.309091-23.272727-23.272728v-151.272727c0-72.145455-44.218182-132.654545-97.745455-132.654545s-97.745455 60.509091-97.745454 132.654545V884.363636c0 13.963636-9.309091 23.272727-23.272728 23.272728s-23.272727-9.309091-23.272727-23.272728v-151.272727c0-97.745455 65.163636-179.2 144.290909-179.2 79.127273 0 144.290909 81.454545 144.290909 179.2V884.363636c0 11.636364-11.636364 23.272727-23.272727 23.272728z" p-id="2611"></path></svg>