<?xml version="1.0" standalone="no"?><!DOCTYPE svg PUBLIC "-//W3C//DTD SVG 1.1//EN" "http://www.w3.org/Graphics/SVG/1.1/DTD/svg11.dtd"><svg t="1610251615550" class="icon" viewBox="0 0 1024 1024" version="1.1" xmlns="http://www.w3.org/2000/svg" p-id="3827" xmlns:xlink="http://www.w3.org/1999/xlink" width="200" height="200"><defs><style type="text/css"></style></defs><path d="M756.404 616.214a32.886 32.886 0 0 0 48.963-10.962 40.194 40.194 0 0 0 0-24.847 59.195 59.195 0 0 0-13.885-21.924 425.325 425.325 0 0 0-59.195-32.886 266.742 266.742 0 0 0 63.58-92.812 306.936 306.936 0 1 0-586.832-119.851 303.282 303.282 0 0 0 90.619 219.24A502.79 502.79 0 0 0 7.334 988.19a31.424 31.424 0 0 0 32.886 32.886 31.424 31.424 0 0 0 34.348-36.54 438.48 438.48 0 0 1 282.819-409.248 313.513 313.513 0 0 0 313.513 0 408.517 408.517 0 0 1 85.504 40.925z m-243.357-65.772a237.51 237.51 0 1 1 238.972-237.51 228.74 228.74 0 0 1-19.732 95.004 226.548 226.548 0 0 1-51.887 73.08 237.51 237.51 0 0 1-167.353 69.426zM1013.645 966.267a459.673 459.673 0 0 0-26.309 46.771 284.281 284.281 0 0 1-95.004-58.464V1024h-45.31V921.688h-46.77V1024h-45.31v-65.772a324.475 324.475 0 0 1-73.08 55.54 352.245 352.245 0 0 0-21.924-46.04 277.704 277.704 0 0 0 89.158-46.04h-62.118v-36.54h73.08v-23.386h-100.85v-37.27h93.542v-23.386h-73.08v-35.809h73.08v-22.655H662.86v-38.001h81.85l-12.424-24.848 48.233-10.962 23.386 35.079h57.002c8.039-13.155 14.616-25.578 19.731-35.81l52.618 12.424-18.27 23.386h96.466v38.001h-118.39v22.655h91.35v59.195h26.309v37.27h-26.309v59.195h-78.926a274.78 274.78 0 0 0 108.158 46.04z m-213.393-200.97h46.77v-22.655h-46.77z m0 59.195h46.77v-23.386h-46.77z m0 60.656h46.77v-23.386h-46.77z m140.313-84.042h-47.502v23.386h48.233z m0 84.042v-23.386h-47.502v23.386z" fill="#2c2c2c" p-id="3828"></path></svg>