<?xml version="1.0" standalone="no"?><!DOCTYPE svg PUBLIC "-//W3C//DTD SVG 1.1//EN" "http://www.w3.org/Graphics/SVG/1.1/DTD/svg11.dtd"><svg t="1610071057857" class="icon" viewBox="0 0 1024 1024" version="1.1" xmlns="http://www.w3.org/2000/svg" p-id="1875" xmlns:xlink="http://www.w3.org/1999/xlink" width="200" height="200"><defs><style type="text/css"></style></defs><path d="M89.088 333.913043a22.26087 22.26087 0 0 0-21.993739 25.555479l86.594782 578.782608a22.26087 22.26087 0 0 0 21.99374 18.966261h672.634434a22.26087 22.26087 0 0 0 22.038261-18.966261l86.594783-578.782608a22.26087 22.26087 0 0 0-22.038261-25.555479H89.088z m0-44.521739H934.956522a66.782609 66.782609 0 0 1 66.070261 76.666435l-86.594783 578.782609a66.782609 66.782609 0 0 1-66.070261 56.898782H175.682783a66.782609 66.782609 0 0 1-66.02574-56.898782l-86.594782-578.782609A66.782609 66.782609 0 0 1 89.043478 289.391304z" p-id="1876"></path><path d="M333.913043 445.217391V224.834783c0-86.728348 79.248696-158.052174 178.086957-158.052174 98.838261 0 178.086957 71.323826 178.086957 158.052174V445.217391h44.521739V224.834783c0-112.417391-100.173913-202.573913-222.608696-202.573913s-222.608696 90.156522-222.608696 202.573913V445.217391h44.521739z" p-id="1877"></path><path d="M311.652174 556.521739a66.782609 66.782609 0 1 1 0-133.565217 66.782609 66.782609 0 0 1 0 133.565217z m0-44.521739a22.26087 22.26087 0 1 0 0-44.521739 22.26087 22.26087 0 0 0 0 44.521739zM712.347826 556.521739a66.782609 66.782609 0 1 1 0-133.565217 66.782609 66.782609 0 0 1 0 133.565217z m0-44.521739a22.26087 22.26087 0 1 0 0-44.521739 22.26087 22.26087 0 0 0 0 44.521739z" p-id="1878"></path></svg>