<?xml version="1.0" standalone="no"?><!DOCTYPE svg PUBLIC "-//W3C//DTD SVG 1.1//EN" "http://www.w3.org/Graphics/SVG/1.1/DTD/svg11.dtd"><svg t="1610089301876" class="icon" viewBox="0 0 1024 1024" version="1.1" xmlns="http://www.w3.org/2000/svg" p-id="1508" xmlns:xlink="http://www.w3.org/1999/xlink" width="200" height="200"><defs><style type="text/css"></style></defs><path d="M780.064 816.48c-35.456 9.568-75.104 2.432-104.32-22.048l-305.44-255.712a21.568 21.568 0 0 1-5.216-6.432l-0.064-0.128a232.832 232.832 0 0 1-23.584 1.184h-0.128a234.656 234.656 0 1 1 233.472-210.944c2.432 1.28 4.704 3.04 6.56 5.28l255.712 305.44c34.848 41.632 34.528 104.416 0.928 146.016-0.384 0.48-2.4 9.312-3.232 12.416-22.816 81.312-74.272 127.328-150.624 143.008-58.464 12-125.6 6.816-224.48-12.064-14.944-2.848-29.44-5.792-51.616-10.336-172.736-35.552-230.816-38.816-264.736-3.744a21.344 21.344 0 1 1-30.688-29.664c28.672-29.664 72.16-39.904 132.256-36.48 42.4 2.4 73.984 7.968 171.744 28.096 22.016 4.512 36.352 7.392 51.04 10.24 176.16 33.696 270.08 22.304 312.32-64.032z m-364.16-295.232l287.264 240.48c27.616 23.136 71.52 21.216 96.992-4.256s27.424-69.344 4.256-96.992l-240.512-287.232a236.512 236.512 0 0 1-146.368 147.52l-1.664 0.48z m-74.56-30.592a192 192 0 1 0 0-384 192 192 0 1 0 0 384z m184.672 22.848l30.176-30.176 90.528 90.496-30.176 30.176-90.496-90.528z" p-id="1509"></path></svg>