<?xml version="1.0" standalone="no"?><!DOCTYPE svg PUBLIC "-//W3C//DTD SVG 1.1//EN" "http://www.w3.org/Graphics/SVG/1.1/DTD/svg11.dtd"><svg t="1610090408549" class="icon" viewBox="0 0 1024 1024" version="1.1" xmlns="http://www.w3.org/2000/svg" p-id="3833" xmlns:xlink="http://www.w3.org/1999/xlink" width="200" height="200"><defs><style type="text/css"></style></defs><path d="M512 953.060241a202.255422 202.255422 0 0 1-143.946024-59.620241c-79.375422-79.375422-79.375422-208.516627 0-287.876627a203.566265 203.566265 0 0 1 287.892048 0A203.566265 203.566265 0 0 1 512 953.060241z m0-391.710843a188.144578 188.144578 0 1 0 133.042892 55.101686A186.88 186.88 0 0 0 512 561.349398z m0 361.114216a171.735904 171.735904 0 0 1-96.90988-29.671325 7.710843 7.710843 0 0 1-1.125783-11.828434l229.474699-229.474698a7.710843 7.710843 0 0 1 11.843856 1.125783 173.17012 173.17012 0 0 1-20.973494 219.173012A171.828434 171.828434 0 0 1 512 922.448193z m-80.331566-37.413012a157.563373 157.563373 0 0 0 215.903614-215.903614zM375.086265 849.73494h-0.724819a7.710843 7.710843 0 0 1-5.659759-3.346506 173.031325 173.031325 0 0 1 20.988915-219.203856 173.031325 173.031325 0 0 1 219.219278-21.004337 7.710843 7.710843 0 0 1 1.125783 11.828434L380.53012 847.514217a7.710843 7.710843 0 0 1-5.443855 2.220723zM512 591.946024a156.514699 156.514699 0 0 0-111.406265 46.141687 157.671325 157.671325 0 0 0-24.181205 191.722409l215.903615-215.903614A156.560964 156.560964 0 0 0 512 591.946024zM539.759036 15.421687v200.481927h-55.518072V15.421687h55.518072m3.084337-15.421687h-61.686746a12.337349 12.337349 0 0 0-12.33735 12.337349v218.987952h86.361446V12.337349a12.337349 12.337349 0 0 0-12.33735-12.337349z" fill="#1A1A1A" p-id="3834"></path><path d="M439.518072 208.192771h38.446265v15.421687H439.518072zM546.436627 208.192771h38.446265v15.421687h-38.446265zM330.24 208.192771h39.263614v15.421687h-39.263614z" fill="#1A1A1A" p-id="3835"></path><path d="M647.710843 75.566265v200.481928h-55.518072V75.566265h55.518072m3.084338-15.421687h-61.686747a12.337349 12.337349 0 0 0-12.33735 12.33735v218.987952h86.361446V72.481928a12.337349 12.337349 0 0 0-12.337349-12.33735z" fill="#1A1A1A" p-id="3836"></path><path d="M655.421687 208.192771h37.012048v15.421687h-37.012048z" fill="#1A1A1A" p-id="3837"></path><path d="M763.373494 208.192771v15.421687h109.493976v784.963855H151.13253V223.614458h109.493976v-15.421687H135.710843v815.807229h752.578314V208.192771h-124.915663z" fill="#1A1A1A" p-id="3838"></path><path d="M700.144578 351.614458V165.012048h55.518073v186.60241h15.421686V161.927711a12.337349 12.337349 0 0 0-12.337349-12.33735h-61.686747a12.337349 12.337349 0 0 0-12.337349 12.33735v189.686747zM592.192771 351.614458v-29.301205h55.518072v29.301205h15.421687v-44.722892h-86.361446v44.722892h15.421687zM580.996627 467.277108a12.337349 12.337349 0 0 0 8.127228 3.084338h61.686747a12.337349 12.337349 0 0 0 8.127229-3.084338zM484.240964 356.240964v-92.530121h55.518072v92.530121h15.421687v-107.951807h-86.361446v107.951807h15.421687zM376.289157 351.614458V165.012048h55.518072v186.60241h15.421687V161.927711a12.337349 12.337349 0 0 0-12.33735-12.33735h-61.686747a12.337349 12.337349 0 0 0-12.337349 12.33735v189.686747zM268.337349 351.614458V165.012048h55.518073v186.60241h15.421686V161.927711a12.337349 12.337349 0 0 0-12.337349-12.33735H265.253012a12.337349 12.337349 0 0 0-12.337349 12.33735v189.686747z" fill="#1A1A1A" p-id="3839"></path><path d="M849.73494 208.192771h15.421687V87.903614H655.421687v15.421687h194.313253v104.86747z" fill="#1A1A1A" p-id="3840"></path><path d="M872.86747 215.903614v243.662651H151.13253V215.903614h46.403856l31.120963 131.546988A15.421687 15.421687 0 0 0 243.662651 359.325301h539.759036a15.421687 15.421687 0 0 0 15.005301-11.874699l31.120964-131.546988H872.86747m15.421687-15.421686h-70.939759l-33.927711 143.421686H243.662651l-33.927711-143.421686H135.710843v274.506024h752.578314V200.481928z" fill="#1A1A1A" p-id="3841"></path><path d="M475.404337 87.903614H158.843373v120.289157h15.421687V103.325301h301.139277V87.903614zM546.853012 87.903614H584.481928v15.421687h-37.628916z" fill="#1A1A1A" p-id="3842"></path></svg>