<?xml version="1.0" standalone="no"?><!DOCTYPE svg PUBLIC "-//W3C//DTD SVG 1.1//EN" "http://www.w3.org/Graphics/SVG/1.1/DTD/svg11.dtd"><svg t="1610090027670" class="icon" viewBox="0 0 1203 1024" version="1.1" xmlns="http://www.w3.org/2000/svg" p-id="4892" xmlns:xlink="http://www.w3.org/1999/xlink" width="234.9609375" height="200"><defs><style type="text/css"></style></defs><path d="M637.876736 541.184c76.544-55.296 127.5904-144.6144 127.5904-242.4064C765.441536 132.9408 633.601536 1.1008 467.790336 1.1008c-165.8624 0-297.7024 131.84-297.7024 297.6768 0 102.0672 51.0464 191.36 127.5904 242.4064A469.0944 469.0944 0 0 0 0.001536 979.2v42.496h85.0432v-42.496c0-212.6336 170.112-382.7456 382.72-382.7456 212.6336 0 382.72 170.112 382.72 382.72 0 12.7488 0 29.7728-4.2496 42.5216h85.0688V979.2c4.2496-199.8592-119.0656-369.9712-293.4272-438.016z m-170.0864-29.7728c-119.0912 0-212.6336-93.568-212.6336-212.6336s93.5424-212.6336 212.6336-212.6336c119.04 0 212.608 93.568 212.608 212.6336s-93.5424 212.6336-212.608 212.6336z" p-id="4893"></path><path d="M952.577536 498.6624c42.496-38.272 68.0192-93.568 68.0192-157.3376 0-106.3168-76.544-195.6352-178.6112-208.384l-12.7488 85.0432c59.52 8.5248 106.3168 63.7952 106.3168 127.5648 0 72.2944-55.296 127.5904-127.5904 127.5904v85.0432c165.8624 0 297.6768 131.84 297.6768 297.6768 0 12.7488 0 29.7728-4.2496 42.5216h85.0432c0-12.7488 4.2752-29.7728 4.2752-42.5216 0-165.8368-97.792-301.9264-238.1568-357.1968z" p-id="4894"></path></svg>