<?xml version="1.0" standalone="no"?><!DOCTYPE svg PUBLIC "-//W3C//DTD SVG 1.1//EN" "http://www.w3.org/Graphics/SVG/1.1/DTD/svg11.dtd"><svg t="1610251683974" class="icon" viewBox="0 0 1024 1024" version="1.1" xmlns="http://www.w3.org/2000/svg" p-id="6045" xmlns:xlink="http://www.w3.org/1999/xlink" width="200" height="200"><defs><style type="text/css"></style></defs><path d="M852.64043599 870.83716047l-671.2960571 0.01665652c-16.06267691-0.01665652-30.78124523-14.78084921-30.82107603-30.82107604V649.73274719c0-30.90797961 15.52532316-47.08363115 31.82408808-31.58727586l90.78164399 71.45501376c12.19619215 10.44146419 30.52850068 24.64947402 40.73098004 12.265715l104.05109526-126.33751631c10.20247937-12.38665581 28.61010432-29.8738271 40.90261459-19.535923l89.53747451 77.95250416c12.28816509 10.32631696 37.7328068 28.35518717 47.73395955 15.78820644l222.7838248-268.48424075c30.08746505-34.35080946 63.64890039-26.29050314 63.6489004 15.79327583v442.99168288c0 16.03950263-13.82418573 30.82107604-29.88324166 30.80369532h0.00579357zM591.37788207 541.09459173a49.33443367 49.33443367 0 0 1-33.74031187 18.7067181c-13.34404349 1.58019662-26.64029002-2.69256234-36.88187599-11.30180956L419.7628805 463.44335329 318.32468599 597.33423841c-8.1030339 10.66886186-20.17394007 17.61969923-33.47815275 19.20424103a50.59236289 50.59236289 0 0 1-5.81674575 0.3461659 49.25259948 49.25259948 0 0 1-31.20417595-11.16710901L159.29839104 533.28485739c-21.07628881-17.23370254-24.18309152-48.30607474-6.94576799-69.38743294 17.22790897-21.10308409 48.292315-24.18888509 69.36425864-6.94287121l48.93902243 40.03213048 101.8654704-134.4796568a49.29460287 49.29460287 0 0 1 33.81924927-19.2353815c13.51929902-1.47518813 26.89375877 2.60493457 37.23093868 11.27139331L545.11404127 440.07643116l131.20266795-164.56350088-36.56322956-30.36772907c-25.94650984-21.54339552-20.18190622-44.88424658 12.80741393-51.86115504l190.14356732-40.21535218c32.98497498-6.97763264 43.18745435 9.20743346 22.67386616 35.97880304l-273.9997208 352.04274953v0.00434517z m0 0" p-id="6046"></path></svg>