<?xml version="1.0" standalone="no"?><!DOCTYPE svg PUBLIC "-//W3C//DTD SVG 1.1//EN" "http://www.w3.org/Graphics/SVG/1.1/DTD/svg11.dtd"><svg t="1610089357978" class="icon" viewBox="0 0 1024 1024" version="1.1" xmlns="http://www.w3.org/2000/svg" p-id="2236" xmlns:xlink="http://www.w3.org/1999/xlink" width="200" height="200"><defs><style type="text/css"></style></defs><path d="M369.472 1005.76a200.32 200.32 0 0 1-100.672-25.728c-32-18.24-56.896-46.4-78.016-78.72l-5.952-10.88c-31.808-58.24 3.968-150.528 91.136-219.2 47.488-37.376 100.032-58.88 144.064-58.88 32.768 0 59.328 12.032 75.392 34.048a29.12 29.12 0 0 0 13.824 5.12c1.344 0 4.16 0 8.384-4.736A863.68 863.68 0 0 0 585.92 544c18.56-32.832 35.072-66.88 48.896-101.12 1.92-10.88 0.512-16.256-0.704-17.728-0.896-1.152-3.584-1.856-3.584-1.856-24-0.576-45.44-11.328-62.528-31.232-32.128-37.376-45.824-103.104-36.544-175.872C545.664 104.704 606.72 20.608 673.728 20.608h1.92c3.136 0.128 6.208 0.384 9.28 0.896 41.088-1.856 78.848 6.72 111.68 25.472 152 86.848 155.2 359.744 7.296 621.312-114.112 201.856-288.704 337.472-434.432 337.472z m50.56-337.92c-31.36 0-72.448 17.536-109.824 46.912-65.152 51.328-93.888 118.72-79.168 146.304 2.24 4.224 3.84 6.848 5.12 8.96 14.592 25.344 36.48 48.384 60.16 61.888 21.376 12.288 46.016 18.432 73.152 18.432 124.416 0 283.2-127.168 386.176-309.312 128.256-226.816 134.4-476.8 13.44-545.92-24.256-13.888-52.864-19.968-84.16-18.112a28.8 28.8 0 0 1-6.848-0.448 23.232 23.232 0 0 0-3.84-0.512c-32.896 0-77.12 62.912-87.808 147.2-7.104 55.68 2.112 107.776 23.552 132.736 10.048 11.712 18.56 11.84 21.376 11.968 2.432 0 28.352 0.768 45.824 22.336 13.248 16.384 17.152 38.656 11.52 66.112a28.224 28.224 0 0 1-1.472 4.736 929.088 929.088 0 0 1-126.976 221.312 28.16 28.16 0 0 1-3.968 4.16 64.768 64.768 0 0 1-47.04 20.416c-28.16 0-49.92-18.24-52.352-20.288a27.52 27.52 0 0 1-5.312-6.272c-6.528-10.496-20.736-12.672-31.552-12.672zM332.672 481.152a27.968 27.968 0 0 1-27.52-22.976 96.64 96.64 0 0 1 15.616-72.704c14.72-21.376 36.928-35.712 62.464-40.384a27.968 27.968 0 1 1 10.112 55.04 40.96 40.96 0 0 0-26.56 17.088 40.96 40.96 0 0 0-6.592 30.912 27.968 27.968 0 0 1-27.52 33.024zM238.08 479.168a27.968 27.968 0 0 1-27.456-22.912 170.88 170.88 0 0 1 137.152-198.72 27.968 27.968 0 0 1 10.112 54.976A114.944 114.944 0 0 0 265.728 446.08a27.968 27.968 0 0 1-27.52 33.024z m-108.16 30.528a27.968 27.968 0 0 1-27.52-22.912 291.264 291.264 0 0 1 47.104-219.456 291.264 291.264 0 0 1 188.48-121.856 27.968 27.968 0 0 1 10.048 55.04 235.776 235.776 0 0 0-152.512 98.56A235.84 235.84 0 0 0 157.504 476.8a27.968 27.968 0 0 1-27.52 32.96z" p-id="2237"></path></svg>