<?xml version="1.0" standalone="no"?><!DOCTYPE svg PUBLIC "-//W3C//DTD SVG 1.1//EN" "http://www.w3.org/Graphics/SVG/1.1/DTD/svg11.dtd"><svg t="1610088805589" class="icon" viewBox="0 0 1024 1024" version="1.1" xmlns="http://www.w3.org/2000/svg" p-id="1290" xmlns:xlink="http://www.w3.org/1999/xlink" width="200" height="200"><defs><style type="text/css"></style></defs><path d="M53.046957 927.219902c-6.656832 10.625328-6.656832 24.067008 0 34.692337 4.48056 7.296912 11.777472 12.417552 20.098512 14.337792s17.154144 0.384048 24.451057-4.096512l672.212026-425.013126c36.740593-23.298912 60.935617-62.087761 65.800225-105.35717 4.864608-43.269409-10.24128-86.410801-40.96512-117.262658l-96.780098-97.164145c-30.595824-30.851856-73.609201-45.957745-116.87861-41.093137-43.141393 4.864608-81.802225 29.187648-104.717089 66.056257L53.046957 927.219902z m384.688086-699.095386c30.339792-48.646081 81.290161-80.650081 138.257282-87.178898 56.967121-6.4008 113.806226 13.569696 154.259283 54.150769l96.908113 97.164146c40.453057 40.709089 60.295537 97.548194 53.894737 154.515314-6.4008 57.095137-38.276785 108.045506-86.794849 138.897362l-672.212027 425.013127c-36.484561 23.04288-84.618577 12.033504-107.533442-24.579073-16.002-25.475184-16.002-57.863233 0-83.210401l423.220903-674.772346z m353.964245 1.536192V22.786848c0-12.545568-10.24128-22.786848-22.786848-22.786848s-22.786848 10.24128-22.786848 22.786848v229.660708c0 12.545568 10.24128 22.786848 22.786848 22.786848H998.573148c8.193024 0 15.617952-4.352544 19.714464-11.393424 4.096512-7.04088 4.096512-15.745968 0-22.786848s-11.649456-11.393424-19.714464-11.393424H791.699288zM244.174848 777.185148l76.553569 76.553569c8.96112 8.32104 22.914864 7.936992 31.619953-0.64008 8.705088-8.705088 8.96112-22.530816 0.64008-31.619952l-76.55357-76.553569c-8.96112-8.705088-23.170896-8.577072-32.004 0.256032-8.833104 8.833104-8.96112 23.04288-0.256032 32.004zM298.325617 506.431304l114.95837 114.830354c5.76072 5.888736 14.209776 8.32104 22.146768 6.272784 7.936992-2.048256 14.209776-8.32104 16.258032-16.258032 2.048256-7.936992-0.256032-16.386048-6.272784-22.146769l-114.95837-114.95837c-8.96112-8.96112-23.298912-8.833104-32.260032 0-8.833104 8.96112-8.833104 23.426928 0.128016 32.260033z m108.301537-162.452307l114.830354 114.830354c8.96112 8.705088 23.170896 8.577072 32.004001-0.256032 8.833104-8.833104 8.96112-23.04288 0.256032-32.004l-114.95837-114.830354c-8.96112-8.32104-22.914864-7.936992-31.619953 0.64008-8.577072 8.705088-8.833104 22.658832-0.512064 31.619952zM934.437131 55.174897L752.014328 237.5977c-5.76072 5.76072-8.065008 14.209776-5.888736 22.018752 2.176272 7.936992 8.32104 14.08176 16.130016 16.130016 7.936992 2.048256 16.258032-0.128016 22.018752-5.888736L966.697163 87.562945c5.76072-5.76072 8.065008-14.209776 5.888736-22.018752-2.048256-7.936992-8.32104-14.08176-16.130016-16.130016-7.808976-2.176272-16.258032 0-22.018752 5.76072z m0 0" p-id="1291"></path></svg>